<svg xmlns="http://www.w3.org/2000/svg" xmlns:xlink="http://www.w3.org/1999/xlink" version="1.1" id="Layer_1" x="0px" y="0px" viewBox="5.0 -10.0 100.0 135.0" enable-background="new 0 0 100 100" xml:space="preserve" height="100px" width="100px">
<path d="M80.9,22.8v37.7H21.8V22.8H80.9 M80.9,20.9H21.8c-1.1,0-2,0.9-2,1.9v37.7c0,1.1,0.9,1.9,2,1.9h59.1c1.1,0,2-0.9,2-1.9V22.8  C82.9,21.7,82,20.9,80.9,20.9L80.9,20.9z"/>
<path d="M84.7,81H18c-0.3,0-0.6-0.1-0.8-0.4C17,80.4,17,80.1,17,79.8l4-15.3c0.1-0.4,0.5-0.7,1-0.7h58.8c0.4,0,0.8,0.3,1,0.7l4,15.3  c0.1,0.3,0,0.6-0.2,0.8C85.3,80.9,85.1,81,84.7,81z M19.2,79.1h64.2L80,65.7H22.7L19.2,79.1z"/>
<path d="M55.2,48.5c-0.3,0-0.6-0.1-0.8-0.4c-0.3-0.4-0.2-1,0.2-1.3l6.6-5l-6.6-5c-0.4-0.3-0.5-0.9-0.2-1.3c0.3-0.4,0.9-0.5,1.3-0.2  l7.6,5.7c0.2,0.2,0.4,0.5,0.4,0.8c0,0.3-0.1,0.6-0.4,0.8l-7.6,5.7C55.6,48.5,55.4,48.5,55.2,48.5z"/>
<path d="M47.5,48.5c-0.2,0-0.4-0.1-0.6-0.2l-7.6-5.7c-0.2-0.2-0.4-0.5-0.4-0.8c0-0.3,0.1-0.6,0.4-0.8l7.6-5.7c0.4-0.3,1-0.2,1.3,0.2  c0.3,0.4,0.2,1-0.2,1.3l-6.6,5l6.6,5c0.4,0.3,0.5,0.9,0.2,1.3C48.1,48.4,47.8,48.5,47.5,48.5z"/>
<text x="0.0" y="117.5" font-size="5.0" font-weight="bold" font-family="Helvetica Neue, Helvetica, Arial-Unicode, Arial, Sans-serif" fill="#000000">Created by Romain Tourneret</text><text x="0.0" y="122.5" font-size="5.0" font-weight="bold" font-family="Helvetica Neue, Helvetica, Arial-Unicode, Arial, Sans-serif" fill="#000000">from the Noun Project</text></svg>