<svg xmlns="http://www.w3.org/2000/svg" xmlns:xlink="http://www.w3.org/1999/xlink" version="1.1" id="Layer_1" x="0px" y="0px" width="88.596px" height="100px" viewBox="-0.2072 -11.326 88.596 135.0" enable-background="new -4.637 -1.326 88.596 100" xml:space="preserve">
<path d="M34.559,96.767C9.338,91.117-7.075,71.569-4.341,41.517C-1.654,12.006,21.721-2.07,44.678-1.296  C63.024-0.679,82.337,12.505,83.877,37.6c0.723,11.746-3.395,22.679-10.049,29.42c-8.635,8.745-19.674,10.466-28.74,9.201  C31.251,74.304,17.51,64.993,18.264,44.954c0.267-7.126,3.701-14.744,9.24-19.788c3.583-3.268,9.538-5.932,15.47-5.743  c6.411,0.208,11.448,3.154,14.756,7.464c5.869,7.661,5.712,19.917,5.492,21.124c0,0-0.04,0.302-0.095,0.711  c-0.149,0.998-0.99,1.744-1.964,1.736l-30.25-0.181c-0.141-0.004-0.283,0.067-0.377,0.185s-0.142,0.275-0.118,0.413  c2.083,11.762,13.239,13.718,15.847,14.063c3.167,0.425,11.723,1.258,18.825-5.782c4.864-4.809,7.119-9.829,7.48-21.025  c0.354-10.708-8.188-28.571-31.342-28.654C29.138,9.433,9.37,19.564,7.429,42.699C5.512,65.44,18.067,82.694,38.189,86.183  c27.562,4.777,38.515-7.408,38.515-7.408c0.511-0.307,1.107-0.149,1.343,0.354l4.354,8.509c0.109,0.228,0.196,0.542,0.109,0.825  c-0.094,0.274-0.173,0.361-0.471,0.604C82.047,89.066,66.065,103.813,34.559,96.767z M31.895,38.154  c-0.086,0.2-0.125,0.413-0.047,0.593c0.079,0.177,0.251,0.291,0.44,0.291l19.289,0.142c0.149,0.004,0.299-0.067,0.409-0.193  c0.102-0.129,0.148-0.291,0.125-0.444c-0.298-1.803-0.872-3.61-1.979-5.028c-1.524-1.964-4.573-3.288-8.007-3.186  c-3.024,0.09-5.122,1.143-7.079,2.97C33.42,34.822,32.225,37.344,31.895,38.154z"/>
<text x="-4.637" y="116.174" font-size="5.0" font-weight="bold" font-family="Helvetica Neue, Helvetica, Arial-Unicode, Arial, Sans-serif" fill="#000000">Created by Ron Hogue</text><text x="-4.637" y="121.174" font-size="5.0" font-weight="bold" font-family="Helvetica Neue, Helvetica, Arial-Unicode, Arial, Sans-serif" fill="#000000">from the Noun Project</text></svg>