<svg xmlns="http://www.w3.org/2000/svg" xmlns:xlink="http://www.w3.org/1999/xlink" version="1.1" id="Layer_1" x="0px" y="0px" width="100px" height="100px" viewBox="5.0 -10.0 100.0 135.0" enable-background="new 0 0 100 100" xml:space="preserve">
<g>
	<defs>
		<rect id="SVGID_1_" x="2.938" y="16.227" width="92.627" height="67.497"/>
	</defs>
	<clipPath id="SVGID_2_">
		<use xlink:href="#SVGID_1_" overflow="visible"/>
	</clipPath>
	<path clip-path="url(#SVGID_2_)" d="M81.706,17.628c-1.392-1.659-3.862-1.875-5.521-0.483L26.333,58.974l-2.35,6.462   c-1.259,3.453-4.694,5.643-8.354,5.322c-0.704-0.062-1.402-0.215-2.075-0.463c-0.149-0.053-0.291-0.12-0.436-0.18   c-1.302,1.428-1.382,3.631-0.106,5.152c0.695,0.831,1.662,1.299,2.661,1.387c1,0.088,2.032-0.206,2.862-0.904l5.409-4.537   c-0.016-0.404-0.01-0.813,0.026-1.227c0.452-5.167,5.023-9.004,10.19-8.551l1.3,0.113L81.222,23.15   C82.881,21.757,83.098,19.286,81.706,17.628"/>
</g>
<rect x="80.043" y="47.258" width="15.521" height="35.748"/>
<g>
	<defs>
		<rect id="SVGID_3_" x="2.938" y="16.227" width="92.627" height="67.497"/>
	</defs>
	<clipPath id="SVGID_4_">
		<use xlink:href="#SVGID_3_" overflow="visible"/>
	</clipPath>
	<path clip-path="url(#SVGID_4_)" d="M54.271,32.639l-3.514-2.712c-1.998-1.641-4.824-2.123-7.346-1l-14.169,6.308l-9.1,4   c-1.919,0.855-3.26,2.463-3.85,4.32c-0.114,0.227-0.221,0.461-0.309,0.707l-5.86,16.1c-0.855,2.352-0.286,4.873,1.269,6.619   c0.033,0.037,0.067,0.07,0.101,0.107c0.093,0.102,0.19,0.201,0.29,0.299c0.044,0.041,0.086,0.081,0.13,0.122   c0.129,0.116,0.262,0.228,0.399,0.336c0.039,0.029,0.08,0.06,0.122,0.088c0.125,0.093,0.253,0.181,0.387,0.265   c0.032,0.023,0.064,0.043,0.097,0.064c0.16,0.098,0.326,0.186,0.496,0.271c0.041,0.02,0.083,0.039,0.123,0.059   c0.18,0.083,0.362,0.164,0.551,0.233c0.553,0.199,1.118,0.321,1.678,0.371c2.89,0.253,5.702-1.444,6.743-4.3l4.872-13.386   l9.37-4.171L54.271,32.639z"/>
	<path clip-path="url(#SVGID_4_)" d="M14.885,77.984c-1.229-0.185-2.34-0.781-3.145-1.742c-0.775-0.923-1.142-2.043-1.165-3.166   l-5.114,7.127l1.379,1.646L14.885,77.984z M4.992,80.861l-2.054,2.862l3.175-1.525L4.992,80.861z"/>
	<path clip-path="url(#SVGID_4_)" d="M34.026,62.997c-4.313-0.378-8.116,2.813-8.493,7.127c-0.378,4.315,2.814,8.116,7.126,8.492   l44.677,1.776V49.989l-12.983-9.788L49.837,52.381c0.119,0.118,0.208,0.256,0.335,0.369l5.686,4.172   c0.851,0.799,1.362,1.938,1.253,3.193c-0.186,2.113-2.008,3.678-4.107,3.592L34.026,62.997z"/>
</g>
<text x="0.0" y="117.5" font-size="5.0" font-weight="bold" font-family="Helvetica Neue, Helvetica, Arial-Unicode, Arial, Sans-serif" fill="#000000">Created by Rediffusion</text><text x="0.0" y="122.5" font-size="5.0" font-weight="bold" font-family="Helvetica Neue, Helvetica, Arial-Unicode, Arial, Sans-serif" fill="#000000">from the Noun Project</text></svg>