<svg xmlns="http://www.w3.org/2000/svg" xmlns:xlink="http://www.w3.org/1999/xlink" xmlns:sketch="http://www.bohemiancoding.com/sketch/ns" width="27px" height="24px" viewBox="1.35 -2.4 27.0 32.4" version="1.1">
    <!-- Generator: Sketch 3.0.1 (7597) - http://www.bohemiancoding.com/sketch -->
    <title>edit</title>
    <description>Created with Sketch.</description>
    <defs/>
    <g id="Layout" stroke="none" stroke-width="1" fill="none" fill-rule="evenodd" sketch:type="MSPage">
        <g id="Style-Guide" sketch:type="MSArtboardGroup" transform="translate(-1439.000000, -1143.000000)" fill="#000000">
            <g id="resto-de-iconos" sketch:type="MSLayerGroup" transform="translate(917.000000, 675.000000)">
                <g id="edit" transform="translate(522.000000, 468.000000)" sketch:type="MSShapeGroup">
                    <path d="M24.375,13.9838867 L24.375,19.200924 C24.375,21.8490388 22.1928083,24 19.5009385,24 L4.87406152,24 C2.18456994,24 0,21.8513805 0,19.200924 L0,4.79907596 C0,2.15096118 2.18219167,0 4.87406152,0 L19.9342041,0 L19.9342041,0.000309439178 L19.9062499,2.4000001 L19.9342041,2.4000001 L19.9342041,2.39969056 C19.9249114,2.39989649 19.915593,2.4 19.9062499,2.4000001 L5.67941807,2.4 C3.88895616,2.4 2.4375,3.82743462 2.4375,5.59204241 L2.4375,18.4079576 C2.4375,20.1708739 3.88723829,21.6 5.67941807,21.6 L18.6955819,21.6 C20.4860438,21.6 21.9375,20.1725654 21.9375,18.4079576 L21.9375,13.9838867 C21.9463665,13.3285719 22.4886164,12.8 23.15625,12.8 C23.8238836,12.8 24.3661335,13.3285719 24.3748924,13.9838867 L24.375,13.9838867 Z M25.5817911,3.6117749 C24.9471891,2.98693603 23.9173793,2.98783871 23.2808521,3.61457311 L11.7960508,14.9226852 C11.1598793,15.5490695 11.1541826,16.55903 11.7932089,17.1882251 C12.4278109,17.813064 13.4576207,17.8121613 14.0941479,17.1854269 L25.5789492,5.87731481 C26.2151207,5.25093054 26.2208174,4.24097003 25.5817911,3.6117749 Z" id="Rectangle-59"/>
                    <circle id="Oval-15" cx="19.7999756" cy="1.2" r="1.2"/>
                </g>
            </g>
        </g>
    </g>
<text x="0.0" y="28.2" font-size="1.2" font-weight="bold" font-family="Helvetica Neue, Helvetica, Arial-Unicode, Arial, Sans-serif" fill="#000000">Created by Laura Vilar</text><text x="0.0" y="29.4" font-size="1.2" font-weight="bold" font-family="Helvetica Neue, Helvetica, Arial-Unicode, Arial, Sans-serif" fill="#000000">from the Noun Project</text></svg>