<svg version="1.1" id="facebook-svg" xmlns="http://www.w3.org/2000/svg" xmlns:xlink="http://www.w3.org/1999/xlink" x="0px"
	 y="0px" width="30px" height="30px" viewBox="-9 11 30 30" enable-background="new -9 11 30 30" xml:space="preserve">
<g>
	<path d="M16.4,11H-4c-2.6,0-5,1.9-5,4.6V36c0,2.6,2.3,5,5,5H8.6c0-3.9,0-8.3,0-12.1c-0.8,0-1.6,0-2.4-0.1c0-1.3,0-2.7,0-4.1
		c0.8,0,1.6,0,2.4,0c0-1.3,0-2.6,0-3.9c0.1-1,0.5-2.1,1.2-2.8c0.9-0.9,2.3-1.2,3.5-1.2c1.3,0,2.7,0,4,0c0,1.4,0,2.8,0,4.2
		c-0.9,0-1.7,0-2.6,0c-0.5,0-1.1,0.4-1.2,0.9c0,0.9,0,1.9,0,2.8c1.3,0,2.5,0,3.8,0c-0.1,1.4-0.3,2.7-0.5,4c-1.1,0-2.2,0.1-3.3,0.1
		c0,3.8,0,8.2,0,12.1h2.8c2.6,0,4.6-2.4,4.6-5V15.6C21,13,19,11,16.4,11z"/>
</g>
</svg>
