<?xml version="1.0" encoding="utf-8"?>
<!-- Generator: Adobe Illustrator 18.1.1, SVG Export Plug-In . SVG Version: 6.00 Build 0)  -->
<!DOCTYPE svg PUBLIC "-//W3C//DTD SVG 1.1//EN" "http://www.w3.org/Graphics/SVG/1.1/DTD/svg11.dtd">
<svg version="1.1" id="linkedin-svg" xmlns="http://www.w3.org/2000/svg" xmlns:xlink="http://www.w3.org/1999/xlink" x="0px"
	 y="0px" viewBox="10.1 10.1 29.8 29.8" enable-background="new 10.1 10.1 29.8 29.8" xml:space="preserve">
<path id="linkedin-square-rounded-icon" d="M36.3,10.1H13.7c-2,0-3.6,1.6-3.6,3.6v22.6c0,2,1.6,3.6,3.6,3.6h22.6
	c2,0,3.6-1.6,3.6-3.6V13.7C39.9,11.7,38.3,10.1,36.3,10.1z M19.6,34.9h-4.1V21.7h4.1V34.9z M17.5,20c-1.3,0-2.4-1.1-2.4-2.4
	s1.1-2.4,2.4-2.4c1.3,0,2.4,1.1,2.4,2.4C19.9,18.9,18.9,20,17.5,20z M34.9,34.9h-4.1c0,0,0-5,0-6.9s-0.7-3-2.2-3
	c-1.6,0-2.5,1.1-2.5,3c0,2,0,6.9,0,6.9h-3.9V21.7h3.9v1.8c0,0,1.2-2.2,4-2.2s4.8,1.7,4.8,5.3C34.9,30.1,34.9,34.9,34.9,34.9z"/>
</svg>
