<?xml version="1.0" encoding="utf-8"?>
<!-- Generator: Adobe Illustrator 18.1.1, SVG Export Plug-In . SVG Version: 6.00 Build 0)  -->
<!DOCTYPE svg PUBLIC "-//W3C//DTD SVG 1.1//EN" "http://www.w3.org/Graphics/SVG/1.1/DTD/svg11.dtd">
<svg version="1.1" id="Layer_1" xmlns="http://www.w3.org/2000/svg" xmlns:xlink="http://www.w3.org/1999/xlink" x="0px" y="0px"
	 viewBox="0 0 50 50" enable-background="new 0 0 50 50" xml:space="preserve">
<g>
	<path fill="#010101" d="M49.6,44.6L34,29c2-3,3.1-6.6,3.1-10.3c0-5-1.9-9.6-5.4-13.1C28.2,2,23.5,0.1,18.6,0.1S8.9,2,5.4,5.5
		C1.9,9,0,13.7,0,18.7s1.9,9.6,5.4,13.1s8.2,5.4,13.1,5.4c3.8,0,7.4-1.1,10.4-3.2l15.6,15.6c0.5,0.5,1.5,0.4,2.2-0.3l2.6-2.6
		C50,46.1,50.1,45.1,49.6,44.6z M18.6,32.2C11.1,32.2,5,26.1,5,18.7S11.1,5.1,18.6,5.1s13.5,6.1,13.5,13.5S26,32.2,18.6,32.2z"/>
</g>
</svg>
