<svg version="1.1" id="vimeo-square-svg" xmlns="http://www.w3.org/2000/svg" xmlns:xlink="http://www.w3.org/1999/xlink" x="0px" width="25px" height="25px"
	 y="0px" viewBox="1212.8 405.2 48.3 48.3" enable-background="new 1212.8 405.2 48.3 48.3" xml:space="preserve" fill="#1ab7ea">
<path d="M1252.2,421.3c0.3-1.8,0.1-3.2-0.7-4.2c-1.1-1.4-3.1-1.8-5.9-1.4c-0.4,0.1-0.8,0.2-1.3,0.4s-1.1,0.5-1.8,1s-1.4,0.9-2,1.5
	c-0.7,0.6-1.3,1.3-1.9,2.2c-0.6,0.9-1.1,1.9-1.4,2.9c1.7-0.1,2.9,0,3.6,0.5s1,1.5,0.8,3.1c-0.1,1.1-0.7,2.6-1.6,4.5
	c-0.9,1.6-1.6,2.7-2.2,3.1c-0.9,0.7-1.8,0.5-2.7-0.4c-0.5-0.5-0.9-1.2-1.2-2c-0.3-0.8-0.5-1.6-0.6-2.3c-0.1-0.7-0.2-1.6-0.3-2.6
	c-0.1-1.1-0.2-1.8-0.3-2.2c-0.5-2.7-0.8-4.4-1.1-5.2c-0.3-0.8-0.6-1.5-1.1-2.2c-0.5-0.7-1-1.1-1.6-1.3c-1.2-0.3-2.5-0.1-4,0.8
	c-1.1,0.7-2.6,1.8-4.3,3.3c-1.7,1.6-3,2.6-3.9,3.2v0.2c0.3,0.2,0.6,0.4,0.8,0.8c0.2,0.4,0.4,0.6,0.7,0.6c0.4,0.1,1,0,1.7-0.3
	c0.7-0.2,1.3-0.4,1.8-0.3c0.5,0,0.9,0.3,1.3,0.9c0.2,0.4,0.4,0.8,0.6,1.2c0.2,0.4,0.3,0.9,0.5,1.5s0.3,1,0.4,1.3
	c0.4,1,0.9,2.9,1.7,5.9c0.8,3.1,1.4,5.1,1.8,6.2c0.9,2.1,2,3.4,3.2,3.9c0.9,0.3,1.8,0.3,2.7,0c0.9-0.2,1.7-0.6,2.4-1
	c2.7-1.6,5.4-4.1,7.9-7.5c2.2-2.9,4-6,5.4-9.2S1251.9,422.8,1252.2,421.3L1252.2,421.3z M1261.1,414.3v30.2c0,2.5-0.9,4.6-2.7,6.4
	c-1.8,1.8-3.9,2.7-6.4,2.7h-30.2c-2.5,0-4.6-0.9-6.4-2.7c-1.8-1.8-2.7-3.9-2.7-6.4v-30.2c0-2.5,0.9-4.6,2.7-6.4
	c1.8-1.8,3.9-2.7,6.4-2.7h30.2c2.5,0,4.6,0.9,6.4,2.7C1260.2,409.7,1261.1,411.8,1261.1,414.3z"/>
</svg>
