<svg version="1.1" id="youtube-square-svg" xmlns="http://www.w3.org/2000/svg" xmlns:xlink="http://www.w3.org/1999/xlink" x="0px" width="25px" height="25px" fill="#e52d27"
	 y="0px" viewBox="-12 13 25 25" enable-background="new -12 13 25 25" xml:space="preserve">
<path id="youtube-3-icon" d="M-0.8,27.9h0.9v4.7h-0.9v-0.5c-0.2,0.2-0.3,0.3-0.5,0.4c-0.5,0.3-1.1,0.3-1.1-0.7v-4h0.9v3.6
	c0,0.2,0,0.3,0.2,0.3c0.2,0,0.4-0.2,0.5-0.4C-0.8,31.5-0.8,27.9-0.8,27.9z M-2.5,26.3h-3v0.9h1v5.5h1v-5.5h1L-2.5,26.3L-2.5,26.3z
	 M3.4,29.1v2.6c0,0.6-0.2,1-0.8,1c-0.3,0-0.6-0.1-0.8-0.4v0.4H0.9v-6.4h0.9v2.1c0.2-0.2,0.5-0.4,0.8-0.4C3.2,27.9,3.4,28.4,3.4,29.1
	z M2.5,29.1c0-0.2,0-0.3-0.1-0.4c-0.1-0.1-0.3-0.2-0.5-0.1c-0.1,0-0.1,0.1-0.2,0.1v3c0.1,0.1,0.1,0.1,0.2,0.2c0.1,0.1,0.4,0.1,0.5,0
	c0.1-0.1,0.1-0.2,0.1-0.3C2.5,31.6,2.5,29.1,2.5,29.1z M0,22.7c0.2,0,0.4-0.2,0.4-0.5v-2.3c0-0.3-0.1-0.5-0.4-0.5
	c-0.3,0-0.4,0.2-0.4,0.5v2.3C-0.4,22.5-0.3,22.7,0,22.7z M13,16.1V35c0,1.7-1.4,3-3,3H-8.9c-1.7,0-3-1.4-3-3V16.1c0-1.7,1.4-3,3-3
	H10C11.7,13,13,14.4,13,16.1z M2.1,22.7c0,0.5,0.2,0.9,0.6,0.9c0.3,0,0.7-0.1,1.1-0.6v0.5h0.9v-5H3.8v3.8c-0.1,0.1-0.4,0.4-0.5,0.4
	c-0.2,0-0.2-0.1-0.2-0.3v-3.8H2.1V22.7z M-1.4,19.8v2.4c0,0.9,0.5,1.3,1.4,1.3c0.7,0,1.3-0.5,1.3-1.3v-2.4c0-0.8-0.6-1.3-1.3-1.3
	C-0.8,18.5-1.4,19-1.4,19.8z M-4.8,16.8l1.2,4v2.7h1v-2.7l1.2-4h-1.1l-0.7,2.7l-0.7-2.7H-4.8z M8.1,26.8c0-1.2-0.9-2.1-2.1-2.1H-4.9
	c-1.2,0-2.1,0.9-2.1,2.1v5.4c0,1.2,0.9,2.1,2.1,2.1H6c1.2,0,2.1-0.9,2.1-2.1V26.8z M6.7,29.2v1.2H5v0.9C5,31.7,5,32,5.4,32
	c0.4,0,0.4-0.3,0.4-0.7V31h0.9v0.4c0,0.9-0.4,1.5-1.3,1.5c-0.8,0-1.3-0.6-1.3-1.5v-2.1c0-0.8,0.5-1.4,1.3-1.4
	C6.3,27.8,6.7,28.4,6.7,29.2z M5.8,29.2c0-0.3-0.1-0.6-0.4-0.6c-0.3,0-0.4,0.2-0.4,0.6v0.5h0.8V29.2z"/>
</svg>
