<?xml version="1.0" encoding="utf-8"?>
<!-- Generator: Adobe Illustrator 18.1.1, SVG Export Plug-In . SVG Version: 6.00 Build 0)  -->
<!DOCTYPE svg PUBLIC "-//W3C//DTD SVG 1.1//EN" "http://www.w3.org/Graphics/SVG/1.1/DTD/svg11.dtd">
<svg version="1.1" id="Layer_1" xmlns="http://www.w3.org/2000/svg" xmlns:xlink="http://www.w3.org/1999/xlink" x="0px" y="0px"
	 viewBox="0 0 32 32" enable-background="new 0 0 32 32" xml:space="preserve">
<g>
	<g>
		<g>
			<path fill="#F9B964" d="M25.9,18.7c0-3.4-3.4-6.3-7.9-7.1c1.6-1,2.6-2.7,2.6-4.7c0-3.1-2.5-5.6-5.6-5.6c-3.1,0-5.6,2.5-5.6,5.6
				c0,1.7,0.8,3.2,1.9,4.2c0.3,0.2-1.9,0.8-2.2,1.7c-2.6,1.3-4.2,3.5-4.2,5.8h0V32c0,0,7.2-0.2,10.5-1.8c3.5,1.6,10.5,1.8,10.5,1.8
				L25.9,18.7L25.9,18.7z"/>
		</g>
	</g>
	<g opacity="0.8">
		<path fill="#E85325" d="M17,18.2c0.9-0.5,1.6-1.5,1.6-2.7c0-1.7-1.6-3.2-3.3-3.2c0,0,0,0,0,0c0,0,0,0,0,0c-1.7,0-3.3,1.5-3.3,3.2
			c0,1.1,0.6,2.1,1.6,2.7C11,18.8,9.3,20,9.3,21.8l0,0.3c0,0,1.1,5.1,5.9,6.6v0c0,0,0,0,0,0c0,0,0,0,0,0c0,0,0,0,0,0c0,0,0,0,0,0v0
			c4.8-1.5,5.9-6.6,5.9-6.6l0-0.3C21.1,20,19.4,18.8,17,18.2z"/>
	</g>
	<g>
		<path fill="#5C4727" d="M19.3,17.7c4.9-4.6,5.1-4.9,5.5-6.3l0,0C25,11,25,10.6,25,10.3l0,0c0-1.8-1.7-2.7-2.6-3l0,0l0.2-0.6
			c0.9,0.3,3,1.3,3,3.7l0,0c0,0.4-0.1,0.9-0.2,1.4l0,0c-0.5,1.6-0.8,2-5.7,6.6l0,0L19.3,17.7L19.3,17.7z M22.5,7.2
			C22.5,7.2,22.5,7.2,22.5,7.2L22.5,7.2L22.5,7.2L22.5,7.2L22.5,7.2z"/>
	</g>
	<g>
		<path fill="#5C4727" d="M17,12.6c1.6,0,3.1,1.4,3.1,2.9c0,0.7-0.2,1.3-0.6,1.8c-0.2,0.3-0.4,0.5-0.7,0.7c0.3,0.1,0.4,0.1,0.6,0.2
			c1.8,0.6,3,1.6,3,3.1l0,0.2c0,0-1,4.7-5.4,6.1v0c0,0,0,0,0,0c0,0,0,0,0,0c0,0,0,0,0,0c0,0,0,0,0,0v0c-4.4-1.3-5.4-6.1-5.4-6.1
			l0-0.2c0-1.6,1.6-2.8,3.8-3.3c-0.9-0.5-1.5-1.4-1.5-2.5C13.8,14,15.3,12.6,17,12.6C16.9,12.6,16.9,12.6,17,12.6
			C17,12.6,17,12.6,17,12.6 M17,11.7C17,11.7,17,11.7,17,11.7C16.9,11.7,16.9,11.7,17,11.7c-2.2,0-4,1.8-4,3.8
			c0,0.8,0.2,1.5,0.7,2.1c-1.9,0.8-3,2.1-3,3.7v0l0,0l0,0.2l0,0.1l0,0.1c0,0.2,1.2,5.2,6,6.7l0.2,0.1l0.3,0c0,0,0.1,0,0.1,0
			c4.8-1.5,5.9-6.5,5.9-6.7l0-0.1l0-0.1l0-0.2l0,0v0c0-1.6-1.1-2.9-3-3.7c0.4-0.6,0.7-1.3,0.7-2.1C20.9,13.5,19.1,11.7,17,11.7
			L17,11.7z"/>
	</g>
	<g>
		<path fill="#5C4727" d="M16.9,23.4c-0.8,0-1.4-0.5-1.3-1.1l0,0c0-0.7,0.5-1.4,1.1-2.2l0,0c-0.7-0.8-1.5-1.6-2.3-2l0,0
			c-6-2.9-6.9-4.9-7-6.8l0,0c0-0.1,0-0.2,0-0.3l0,0c0-3.2,3.2-4.4,3.2-4.4l0,0l0.2,0.6c0,0-0.2,0.1-0.4,0.2l0,0
			c-0.3,0.1-0.6,0.4-1,0.7l0,0C8.6,8.7,7.9,9.7,7.9,11l0,0c0,0.1,0,0.2,0,0.3l0,0c0.1,1.7,0.6,3.3,6.6,6.2l0,0
			c0.9,0.5,1.8,1.2,2.5,2.1l0,0c0.1-0.1,0.2-0.2,0.3-0.4l0,0c0.9-1,1.9-1.9,2.2-2.1l0,0c0.1,0,0-0.1,0.3-0.1l0,0
			c0.1,0,0.2,0,0.3,0.1l0,0c0.1,0.1,0.1,0.2,0.1,0.2l0,0c0,0.2-0.1,0.2-0.1,0.2l0,0c0,0,0,0-0.1,0.1l0,0L20,17.5l0.1,0.2
			c0,0,0,0,0,0l0,0c0,0-0.1,0.1-0.1,0.1l0,0c-0.1,0.1-0.3,0.2-0.5,0.4l0,0c-0.4,0.3-0.9,0.8-1.4,1.3l0,0c-0.2,0.2-0.4,0.4-0.6,0.6
			l0,0c0.5,0.7,0.9,1.5,0.9,2.1l0,0c0,0.3-0.1,0.6-0.3,0.8l0,0c-0.2,0.2-0.6,0.3-1,0.3l0,0C17,23.4,16.9,23.4,16.9,23.4L16.9,23.4z
			 M16.2,22.3c0,0.2,0,0.3,0.7,0.4l0,0c0.1,0,0.1,0,0.2,0l0,0c0.6,0,0.6-0.1,0.6-0.5l0,0c0-0.4-0.2-1-0.7-1.6l0,0
			C16.5,21.4,16.2,22,16.2,22.3L16.2,22.3z"/>
	</g>
	<path fill="#5C4727" d="M22.3,7.5c0.2,0,0.4-0.2,0.5-0.6c0.1-0.3-0.1-0.7-0.3-0.7"/>
	<path fill="#5C4727" d="M10.7,7.5c-0.2,0-0.5-0.2-0.6-0.5c-0.1-0.3,0.1-0.7,0.3-0.7"/>
	<g>
		<g>
			<path fill="#5C4727" d="M16.5,0.8c2.9,0,5.3,2.4,5.3,5.3c0,1.9-1,3.5-2.4,4.4c4.2,0.8,7.4,3.4,7.4,6.6h0v12.4
				c0,0-6.6-0.3-9.9-1.7c-3.1,1.6-9.8,1.7-9.8,1.7V17.1h0c0-3,2.9-5.6,6.8-6.5c-1.6-0.9-2.6-2.6-2.6-4.5C11.3,3.2,13.6,0.8,16.5,0.8
				 M16.5,0c-3.4,0-6.1,2.7-6.1,6.1c0,1.6,0.6,3.1,1.7,4.2c-3.5,1.3-5.8,3.9-5.8,6.8l0,12.4v0.9l0.9,0c0.3,0,6.5-0.2,9.8-1.6
				c3.5,1.4,9.5,1.6,9.8,1.6l0.9,0v-0.9V17.1c0-3.1-2.6-5.9-6.5-7.1c0.9-1.1,1.5-2.5,1.5-4C22.6,2.7,19.9,0,16.5,0L16.5,0z"/>
		</g>
	</g>
</g>
</svg>
